<?xml version="1.0" standalone="no"?>
<!DOCTYPE svg PUBLIC "-//W3C//DTD SVG 20010904//EN"
 "http://www.w3.org/TR/2001/REC-SVG-20010904/DTD/svg10.dtd">
<svg version="1.0" xmlns="http://www.w3.org/2000/svg"
 width="1000.000000pt" height="1012.000000pt" viewBox="0 0 1000.000000 1012.000000"
 preserveAspectRatio="xMidYMid meet">

<g transform="translate(0.000000,1012.000000) scale(0.100000,-0.100000)"
fill="#000000" stroke="none">
<path d="M0 9200 l0 -880 145 0 145 0 0 735 0 735 4710 0 4710 0 0 -735 0
-735 145 0 145 0 0 880 0 880 -5000 0 -5000 0 0 -880z"/>
<path d="M8953 8056 c-96 -18 -165 -42 -243 -82 -186 -97 -297 -241 -358 -463
l-27 -96 0 -810 c0 -918 -2 -889 80 -1053 54 -107 134 -190 254 -262 120 -72
313 -130 433 -130 34 0 41 -5 76 -57 116 -170 307 -267 542 -275 l75 -3 3 108
3 107 -53 0 c-64 0 -152 14 -224 35 -51 15 -137 70 -138 89 -1 6 28 17 64 27
142 36 251 95 356 192 80 74 133 159 172 272 l27 80 3 810 c4 870 2 896 -47
1037 -40 111 -86 183 -176 273 -92 92 -173 140 -310 181 -80 23 -110 27 -265
30 -119 2 -198 -1 -247 -10z m453 -230 c142 -45 269 -148 319 -259 62 -134 60
-109 60 -957 0 -720 -1 -780 -18 -839 -55 -193 -179 -316 -375 -372 -109 -31
-108 -31 -116 58 -3 42 -6 159 -6 260 l0 183 -111 0 -111 0 3 -263 4 -264 -70
13 c-154 30 -317 148 -378 274 -58 120 -57 106 -57 951 0 743 1 779 20 854 11
43 32 99 46 124 59 103 178 196 300 236 86 28 144 34 279 31 106 -3 145 -9
211 -30z"/>
<path d="M775 8039 c-110 -14 -240 -55 -339 -106 -123 -64 -247 -184 -300
-293 -51 -104 -66 -169 -66 -285 0 -176 41 -284 153 -402 127 -133 258 -202
697 -363 392 -144 504 -202 612 -319 115 -123 151 -272 112 -458 -34 -165
-119 -272 -277 -347 -111 -53 -180 -72 -312 -87 -336 -37 -627 91 -772 341
-20 33 -44 104 -57 163 l-6 27 -110 0 -110 0 0 -44 c0 -99 79 -282 171 -394
67 -82 161 -151 284 -212 146 -72 233 -91 447 -97 262 -8 427 21 598 105 78
38 109 60 175 127 122 123 179 235 210 412 49 282 -29 518 -227 683 -121 101
-254 164 -617 294 -425 153 -525 200 -625 300 -93 91 -111 136 -111 271 0 103
2 114 32 178 44 93 120 165 226 216 134 63 203 76 417 76 205 -1 292 -16 433
-75 39 -16 72 -29 73 -27 1 1 17 47 34 101 30 93 31 101 15 112 -28 21 -176
71 -261 89 -94 20 -394 29 -499 14z"/>
<path d="M7205 8040 c-298 -47 -524 -240 -589 -501 -30 -123 -35 -261 -36
-954 0 -688 5 -807 36 -930 61 -239 235 -401 503 -468 70 -17 116 -21 251 -21
166 0 245 9 395 45 91 22 265 78 265 85 0 6 -43 178 -45 181 -1 2 -47 -11
-102 -27 -220 -66 -414 -92 -584 -78 -260 20 -424 159 -473 400 -23 111 -24
1565 -1 1672 33 157 106 254 237 319 131 64 212 81 383 81 137 -1 161 -4 270
-33 66 -18 128 -34 138 -34 14 -2 26 16 48 68 28 64 29 70 13 82 -27 20 -183
73 -274 94 -99 23 -343 33 -435 19z"/>
<path d="M2410 6605 l0 -1405 665 0 665 0 0 100 0 100 -555 0 -555 0 2 618 3
617 345 3 345 2 34 98 c19 53 36 103 39 110 3 9 -77 12 -382 12 l-386 0 0 470
0 470 560 0 560 0 0 105 0 105 -670 0 -670 0 0 -1405z"/>
<path d="M5345 7868 c-25 -79 -227 -710 -448 -1403 l-403 -1260 114 -3 c63 -1
117 -1 119 2 2 2 47 138 99 302 52 165 122 383 155 487 l60 187 459 0 458 0
117 -357 c64 -197 135 -416 159 -488 l43 -130 121 -3 121 -3 -22 68 c-13 37
-219 670 -458 1405 l-434 1338 -107 0 -107 0 -46 -142z m354 -843 c105 -330
191 -606 191 -613 0 -9 -89 -12 -390 -12 -215 0 -390 4 -390 9 0 5 74 246 164
537 90 291 176 569 191 618 18 58 30 84 35 75 4 -8 94 -284 199 -614z"/>
<path d="M4069 5443 c-91 -56 -73 -197 29 -233 37 -13 47 -13 84 0 101 36 119
180 29 233 -37 21 -108 22 -142 0z"/>
<path d="M620 4049 c-369 -25 -553 -208 -605 -606 -20 -156 -21 -679 0 -813
47 -316 172 -477 425 -550 103 -30 379 -39 525 -16 95 14 215 46 243 64 10 7
7 26 -14 93 -14 46 -27 85 -29 87 -1 1 -22 -5 -46 -14 -85 -30 -215 -54 -329
-61 -250 -13 -417 60 -490 215 -61 128 -86 349 -77 668 14 493 83 665 292 730
28 9 104 18 170 21 132 6 235 -8 381 -52 45 -14 86 -25 91 -25 9 0 67 189 60
196 -2 2 -38 13 -81 24 -142 36 -336 51 -516 39z"/>
<path d="M4430 4053 c-163 -4 -543 -24 -562 -29 -17 -5 -18 -60 -18 -980 l0
-974 105 0 105 0 0 361 0 362 191 -7 c191 -7 191 -8 215 -34 30 -33 239 -347
360 -539 l89 -143 128 0 c100 0 127 3 121 13 -30 50 -395 591 -434 643 -28 36
-50 67 -50 69 0 2 26 11 57 20 179 52 283 166 334 362 30 118 44 331 31 453
-40 344 -185 435 -672 423z m284 -204 c65 -24 116 -78 142 -148 21 -61 30
-280 15 -392 -25 -186 -78 -273 -197 -320 -54 -21 -78 -23 -283 -27 -123 -2
-248 -1 -277 3 l-54 6 0 444 0 444 38 4 c20 2 155 4 299 5 243 2 266 0 317
-19z"/>
<path d="M7866 3063 c-82 -533 -151 -974 -154 -980 -3 -10 22 -13 107 -13 107
0 111 1 116 23 8 33 202 1374 230 1591 14 104 26 191 28 193 2 1 21 -61 42
-140 36 -137 485 -1599 505 -1644 9 -22 15 -23 133 -23 l123 0 222 743 c122
408 238 814 258 902 34 156 44 188 44 149 0 -78 55 -461 149 -1049 61 -379
114 -702 117 -717 l6 -28 104 0 c101 0 104 1 104 23 0 20 -293 1860 -305 1915
-5 22 -8 22 -165 22 -88 0 -160 -2 -160 -4 0 -3 -96 -329 -214 -725 -118 -396
-229 -785 -248 -865 -18 -80 -35 -146 -38 -146 -3 0 -21 63 -39 140 -17 77
-122 431 -232 787 -110 356 -211 685 -225 731 l-25 82 -167 0 -167 0 -149
-967z"/>
<path d="M0 920 l0 -880 5000 0 5000 0 0 880 0 880 -145 0 -145 0 0 -735 0
-735 -4710 0 -4710 0 0 735 0 735 -145 0 -145 0 0 -880z"/>
</g>
</svg>
